<?xml version="1.0" encoding="UTF-8"?><svg id="Layer_1" xmlns="http://www.w3.org/2000/svg" viewBox="0 0 50 50"><defs><style>.cls-1{fill:none;}.cls-2{fill:#777;}</style></defs><circle class="cls-1" cx="25" cy="25" r="25"/><path class="cls-2" d="M40.9,12.9c-.76-.78-1.82-1.17-3.2-1.17H12.3c-1.38,0-2.44.39-3.2,1.17-.76.78-1.14,1.94-1.14,3.48v17.22c0,1.54.38,2.7,1.14,3.48.76.78,1.82,1.17,3.2,1.17h25.4c1.38,0,2.44-.39,3.2-1.17.76-.78,1.14-1.94,1.14-3.48v-17.22c0-1.55-.38-2.71-1.14-3.48ZM40,21.19v12.41c0,.21-.01.41-.04.59l-9.31-9.13,5.15-5.04s-.04-.03-.05-.04l4.22-4.14c.02.17.04.35.04.55v4.81s0,0,0,0ZM12.61,13.78h24.77c.6,0,1.1.12,1.5.34l-12.03,11.85c-.34.33-.67.57-.98.72-.3.15-.59.22-.88.22-.28,0-.58-.08-.88-.22-.31-.15-.64-.39-.98-.72l-12.03-11.85c.4-.22.9-.34,1.5-.34ZM10.04,15.84l4.22,4.14s-.04.03-.05.04l5.15,5.04-9.31,9.13c-.03-.19-.04-.38-.04-.59v-12.41s0,0,0,0v-4.81c0-.19.02-.37.04-.55ZM12.61,36.22c-.55,0-1.02-.11-1.4-.31l9.6-9.42,1.05,1.03c.52.52,1.04.89,1.55,1.11s1.02.34,1.54.34c.01,0,.03,0,.04,0,.01,0,.03,0,.04,0,.51,0,1.03-.11,1.54-.34s1.03-.6,1.55-1.11l1.05-1.03,9.6,9.42c-.39.2-.85.31-1.4.31H12.61Z"/></svg>