<?xml version="1.0" encoding="UTF-8"?><svg id="Layer_1" xmlns="http://www.w3.org/2000/svg" viewBox="0 0 50 50"><defs><style>.cls-1{fill:none;}.cls-2{fill:#777;}</style></defs><circle class="cls-1" cx="25" cy="25" r="25"/><path class="cls-2" d="M27.68,39.33c-1.72-.64-3.47-1.57-5.25-2.78s-3.52-2.68-5.24-4.39c-1.72-1.72-3.19-3.47-4.4-5.25-1.21-1.79-2.14-3.54-2.77-5.26-.64-1.73-.96-3.36-.96-4.91,0-.9.09-1.72.27-2.45.18-.74.46-1.42.84-2.04.38-.63.88-1.21,1.48-1.77.06-.05.12-.1.17-.15.06-.05.11-.1.17-.15.54-.49,1.07-.86,1.61-1.1s1.06-.36,1.57-.35c.56,0,1.1.17,1.61.48.51.31,1,.81,1.45,1.48l3.3,4.77c.48.7.73,1.44.75,2.22.01.79-.33,1.53-1.03,2.24l-1.21,1.22c-.19.19-.29.37-.32.56s.02.38.14.59c.22.37.49.77.81,1.18.32.41.68.84,1.09,1.29s.85.91,1.34,1.38c.44.44.92.89,1.43,1.35.51.45.99.86,1.45,1.22s.82.63,1.1.8c.21.13.41.18.6.15.19-.03.37-.14.55-.32l1.22-1.2c.71-.7,1.45-1.04,2.24-1.03.79,0,1.53.26,2.22.74l4.78,3.3c.66.46,1.15.95,1.47,1.46.32.51.48,1.05.48,1.6,0,.51-.12,1.03-.35,1.57s-.6,1.07-1.09,1.61c-.05.06-.1.12-.16.18-.06.06-.11.12-.16.18-.83.91-1.75,1.57-2.75,1.97-1,.4-2.18.61-3.54.61-1.55,0-3.18-.32-4.9-.96ZM35.16,37.61c.79-.32,1.48-.81,2.08-1.47.04-.05.08-.1.12-.13s.07-.08.1-.12c.26-.29.46-.58.59-.86s.19-.55.19-.81-.06-.49-.17-.71c-.11-.22-.3-.41-.56-.58l-4.77-3.2c-.28-.19-.58-.28-.89-.28s-.63.16-.94.47l-1.38,1.39c-.51.52-1.07.78-1.68.79-.61,0-1.18-.17-1.7-.55-.4-.28-.86-.64-1.38-1.07-.52-.43-1.06-.9-1.61-1.4-.55-.5-1.06-.99-1.53-1.47-.47-.47-.94-.96-1.42-1.49-.48-.53-.93-1.04-1.34-1.55-.42-.51-.77-.96-1.05-1.36-.37-.52-.54-1.08-.54-1.69,0-.61.27-1.17.79-1.69l1.39-1.38c.31-.31.46-.62.46-.93s-.09-.62-.28-.9l-3.2-4.77c-.31-.48-.74-.73-1.28-.73-.25,0-.53.06-.82.19-.29.13-.57.32-.85.57-.04.04-.08.08-.13.12-.04.04-.09.07-.14.11-.66.6-1.14,1.28-1.47,2.07s-.49,1.63-.5,2.55c-.02,1.05.16,2.16.54,3.33s.91,2.38,1.59,3.6c.69,1.22,1.5,2.43,2.42,3.62.93,1.19,1.93,2.32,3.01,3.4,1.43,1.43,2.94,2.7,4.54,3.83,1.6,1.13,3.19,2.01,4.77,2.65s3.07.95,4.47.94c.92-.02,1.77-.18,2.56-.5Z"/></svg>